<?xml version="1.0" standalone="no"?>
<!DOCTYPE svg PUBLIC "-//W3C//DTD SVG 20010904//EN"
 "http://www.w3.org/TR/2001/REC-SVG-20010904/DTD/svg10.dtd">
<svg version="1.0" xmlns="http://www.w3.org/2000/svg"
 width="260.000000pt" height="260.000000pt" viewBox="0 0 260.000000 260.000000"
 preserveAspectRatio="xMidYMid meet">
<metadata>
Created by potrace 1.14, written by Peter Selinger 2001-2017
</metadata>
<g transform="translate(0.000000,260.000000) scale(0.100000,-0.100000)"
fill="#000000" stroke="none">
<path d="M1150 2593 c-302 -50 -513 -146 -713 -323 -289 -256 -441 -609 -432
-1000 2 -80 6 -156 9 -170 3 -14 11 -50 17 -80 27 -132 95 -297 173 -418 192
-300 486 -501 847 -578 119 -25 382 -25 499 0 550 119 945 530 1035 1079 13
81 14 329 1 392 -26 129 -42 189 -63 245 -132 355 -389 621 -735 764 -77 32
-224 73 -293 83 -44 6 -316 11 -345 6z m370 -178 c166 -34 364 -123 469 -210
159 -131 246 -237 326 -395 43 -86 88 -213 100 -285 3 -22 10 -61 14 -87 15
-90 3 -326 -20 -385 -5 -13 -7 -23 -4 -23 9 0 -54 -170 -90 -240 -32 -64 -106
-178 -140 -217 -244 -276 -550 -415 -897 -408 -338 7 -621 144 -858 415 -106
121 -207 339 -240 520 -17 93 -19 279 -4 375 76 470 439 850 899 939 44 9 94
17 110 19 74 8 257 -2 335 -18z"/>
<path d="M1025 1780 c-50 -20 -50 -13 -50 -476 0 -429 0 -435 21 -461 16 -20
30 -27 56 -27 30 0 80 32 322 204 158 113 296 213 308 222 30 25 29 82 -3 113
-13 13 -78 62 -144 109 -66 47 -127 90 -135 96 -8 6 -84 60 -169 120 -84 61
-161 110 -170 109 -9 0 -25 -4 -36 -9z"/>
</g>
</svg>
